<?xml version="1.0" encoding="utf-8"?>
<!-- Generator: Adobe Illustrator 16.0.0, SVG Export Plug-In . SVG Version: 6.00 Build 0)  -->
<!DOCTYPE svg PUBLIC "-//W3C//DTD SVG 1.1 Tiny//EN" "http://www.w3.org/Graphics/SVG/1.1/DTD/svg11-tiny.dtd">
<svg version="1.1" baseProfile="tiny" id="Layer_1" xmlns="http://www.w3.org/2000/svg" xmlns:xlink="http://www.w3.org/1999/xlink"
	 x="0px" y="0px" width="20px" height="20px" viewBox="0 0 20 20" xml:space="preserve">
<g>
	<path fill="#0099CC" d="M9.987,0C4.47,0,0,4.471,0,9.987c0,5.515,4.47,9.987,9.987,9.987c5.516,0,9.987-4.472,9.987-9.987
		C19.974,4.471,15.503,0,9.987,0z M15.425,16.454c-1.024,0.234-1.891-0.061-2.587-0.829c-0.275-0.304-0.503-0.654-0.737-0.996
		c-0.192-0.286-0.357-0.59-0.541-0.891c-0.2,0.252-0.401,0.517-0.616,0.772c-0.535,0.641-1.146,1.19-1.903,1.565
		c-1.678,0.829-3.65,0.461-4.911-0.908c-0.647-0.708-1.048-1.544-1.288-2.462c-0.263-0.991-0.362-2.005-0.337-3.03
		c0.027-1,0.178-1.98,0.501-2.931c0.252-0.739,0.62-1.411,1.175-1.97c0.783-0.783,1.708-1.262,2.83-1.306
		c1.002-0.04,1.872,0.303,2.622,0.953c0.582,0.503,1.003,1.134,1.352,1.81c0.265,0.512,0.482,1.048,0.723,1.573
		c0.022,0.049,0.063,0.089,0.115,0.16c0.061-0.151,0.112-0.266,0.153-0.383c0.392-1.172,0.782-2.345,1.176-3.518
		c0.029-0.082,0.062-0.163,0.095-0.245c0.087-0.217,0.253-0.338,0.485-0.343c0.487-0.008,0.974-0.005,1.459-0.002
		c0.063,0.001,0.127,0.021,0.187,0.042c0.144,0.051,0.216,0.146,0.21,0.301c-0.002,0.101-0.019,0.203-0.048,0.3
		c-0.497,1.719-1.051,3.419-1.71,5.085c-0.237,0.599-0.496,1.189-0.745,1.784c-0.164,0.387-0.172,0.763,0.039,1.14
		c0.277,0.5,0.536,1.01,0.819,1.505c0.187,0.329,0.505,0.489,0.866,0.551c0.224,0.037,0.411-0.064,0.555-0.238
		c0.049-0.059,0.09-0.124,0.133-0.189c0.145-0.234,0.354-0.351,0.628-0.349c0.286,0.001,0.571,0,0.854,0.004
		c0.062,0,0.125,0.007,0.187,0.019c0.209,0.042,0.345,0.202,0.328,0.414C17.411,14.965,16.693,16.162,15.425,16.454z"/>
	<path fill="#0099CC" d="M9.98,8.769C9.754,8.082,9.463,7.421,9.024,6.838C8.45,6.072,7.717,5.682,6.738,5.856
		C5.778,6.028,5.132,6.562,4.822,7.489C4.554,8.288,4.44,9.109,4.425,9.952c0.037,0.46,0.066,0.922,0.106,1.381
		c0.051,0.582,0.206,1.13,0.5,1.634c0.669,1.147,2.005,1.528,3.176,0.91c0.52-0.274,0.919-0.687,1.278-1.138
		c0.406-0.507,0.716-1.07,1.017-1.643c0.087-0.169,0.104-0.33,0.048-0.504C10.362,9.984,10.18,9.374,9.98,8.769z"/>
</g>
</svg>
