<?xml version="1.0" encoding="utf-8"?>
<!-- Generator: Adobe Illustrator 16.0.0, SVG Export Plug-In . SVG Version: 6.00 Build 0)  -->
<!DOCTYPE svg PUBLIC "-//W3C//DTD SVG 1.1 Tiny//EN" "http://www.w3.org/Graphics/SVG/1.1/DTD/svg11-tiny.dtd">
<svg version="1.1" baseProfile="tiny" id="Layer_1" xmlns="http://www.w3.org/2000/svg" xmlns:xlink="http://www.w3.org/1999/xlink"
	 x="0px" y="0px" width="504px" height="504px" viewBox="0 0 504 504" xml:space="preserve">
<g>
	<path fill="#D2A79F" d="M122.123,264.973l-0.006,0.125l-0.011,0.127c-1.333,14.957-0.823,41.558,6.22,49.256
		c1.305,1.428,2.402,1.619,3.302,1.619c0.626,0,1.333-0.12,2.099-0.343l-5.558-90.123
		C125.005,233.919,122.97,247.134,122.123,264.973z"/>
	<path fill="#D2A79F" d="M336.841,91.511c-24.288-25.376-56.382-29.165-73.351-29.165c-6.971,0-11.374,0.649-11.419,0.656
		l-0.822,0.124l-0.834-0.104c-0.018-0.003-2.861-0.347-7.559-0.347c-13.902,0-40.768,2.853-64.497,21.967
		c-13.407,10.8-23.997,25.438-31.475,43.51c-9.082,21.948-13.695,49.247-13.713,81.145l0.143,2.311l0.186,3.008l0.188,3.042
		l5.841,94.715l0.229,3.71l0.214,3.478l0.319,5.179c0.238,1.779,2.591,18.445,10.141,40.509
		c7.289,21.303,21.065,52.173,45.297,78.263l0.768,0.826l0.31,0.795c0.276,0.524,2.763,4.95,9.95,9.354
		c7.271,4.454,20.878,9.765,44.416,9.765c23.612,0,37.506-5.349,45.002-9.835c7.482-4.479,10.178-8.985,10.457-9.479l0.387-0.874
		l0.6-0.552c45.654-49.156,54.054-115.503,54.435-118.727l0.322-5.224l0.214-3.475l0.229-3.711l5.841-94.716l0.188-3.041
		l0.186-3.009l0.15-2.439C371.507,155.947,360.626,116.363,336.841,91.511z"/>
	<path fill="#D2A79F" d="M380.225,265.1l-0.006-0.125c-0.848-17.829-2.88-31.04-6.041-39.326l-5.557,90.111
		c0.765,0.223,1.469,0.342,2.094,0.342c0.902,0,1.998-0.192,3.304-1.621c7.044-7.698,7.553-34.299,6.218-49.256L380.225,265.1z"/>
</g>
<path fill="#2B2B2B" d="M390.202,264.418c-1.243-26.053-4.937-42.752-11.271-50.915l0.232-3.778l0.008-0.123v-0.123
	c0.002-145.495-91.606-156.804-119.683-156.804c-4.258,0-7.192,0.253-8.316,0.37c-1.125-0.116-4.061-0.37-8.314-0.37
	c-15.219,0-44.651,3.14-70.771,24.179c-14.728,11.863-26.315,27.836-34.442,47.474c-9.604,23.208-14.473,51.857-14.473,85.152v0.123
	l0.007,0.123l0.233,3.774c-6.337,8.161-10.03,24.861-11.274,50.918c-0.096,1.104-0.917,11.078-0.422,22.652
	c0.716,16.744,3.821,28.234,9.229,34.15c2.612,2.856,5.852,4.506,9.43,4.817c0.301,2.31,2.678,19.219,10.489,42.136
	c7.566,22.198,21.879,54.346,47.154,81.727c2.226,4.135,15.549,24.348,63.154,24.348c47.844,0,61.863-20.388,64.112-24.303
	c25.31-27.401,39.365-59.586,46.707-81.807c7.519-22.754,9.687-39.59,9.979-42.102c3.578-0.312,6.816-1.963,9.43-4.82
	c5.408-5.916,8.514-17.404,9.227-34.148C391.121,275.498,390.299,265.525,390.202,264.418z M374.843,214.86
	c0.025,0.027,0.051,0.058,0.076,0.085c-0.025-0.027-0.051-0.053-0.076-0.081V214.86z M179.405,76.329
	c-27.423,19.491-52.232,57.915-52.232,133.151l0.332,5.378c-0.02,0.022-0.041,0.042-0.061,0.064c0.02-0.021,0.04-0.045,0.06-0.067
	l-0.331-5.375C127.172,134.243,151.981,95.819,179.405,76.329z M116.13,264.689c0.06-1.25,0.126-2.462,0.197-3.657
	c-0.07,1.193-0.136,2.407-0.196,3.655c0,0-2.113,23.561,1.796,40.495C114.017,288.249,116.13,264.689,116.13,264.689z
	 M128.326,314.48c-7.043-7.698-7.553-34.299-6.22-49.256l0.011-0.127l0.006-0.125c0.847-17.839,2.882-31.053,6.046-39.338
	l5.558,90.123c-0.767,0.223-1.473,0.343-2.099,0.343C130.728,316.1,129.631,315.908,128.326,314.48z M251.172,470.249
	c-49.886,0-59.84-22.656-59.84-22.656c-48.461-52.177-57.018-122.282-57.018-122.282l-0.214-3.472
	c-0.028,0.006-0.054,0.007-0.082,0.013c0.027-0.006,0.056-0.012,0.083-0.018l0.214,3.475c0,0,8.557,70.106,57.018,122.283
	c0,0,9.954,22.656,59.84,22.656c21.045,0,35.161-4.032,44.45-8.694C286.335,466.217,272.219,470.249,251.172,470.249z
	 M362.588,316.085l-0.214,3.475l-0.322,5.224c-0.381,3.224-8.78,69.57-54.435,118.727l-0.6,0.552l-0.387,0.874
	c-0.279,0.494-2.975,5.001-10.457,9.479c-7.496,4.486-21.39,9.835-45.002,9.835c-23.538,0-37.145-5.311-44.416-9.765
	c-7.187-4.404-9.674-8.83-9.95-9.354l-0.31-0.795l-0.768-0.826c-24.232-26.09-38.008-56.96-45.297-78.263
	c-7.55-22.063-9.903-38.729-10.141-40.509l-0.319-5.179l-0.214-3.478l-0.229-3.71l-5.841-94.715l-0.188-3.042l-0.186-3.008
	l-0.143-2.311c0.018-31.898,4.631-59.197,13.713-81.145c7.478-18.072,18.068-32.71,31.475-43.51
	c23.729-19.114,50.595-21.967,64.497-21.967c4.698,0,7.541,0.344,7.559,0.347l0.834,0.104l0.822-0.124
	c0.045-0.007,4.449-0.656,11.419-0.656c16.969,0,49.062,3.789,73.351,29.165c23.785,24.852,34.666,64.436,32.34,117.657l-0.15,2.439
	l-0.186,3.009l-0.188,3.041l-5.841,94.716L362.588,316.085z M368.246,321.839v-0.005c0.027,0.006,0.056,0.013,0.083,0.018
	C368.301,321.847,368.274,321.845,368.246,321.839z M374.019,314.48c-1.306,1.429-2.401,1.621-3.304,1.621
	c-0.625,0-1.329-0.119-2.094-0.342l5.557-90.111c3.161,8.286,5.193,21.497,6.041,39.326l0.006,0.125l0.012,0.125
	C381.571,280.182,381.062,306.782,374.019,314.48z M386.579,288.039c0.354-7.064,0.184-13.68-0.027-18.053
	C386.763,274.358,386.934,280.975,386.579,288.039z"/>
<path id="Hair" fill="#3F2C21" stroke="#2B201D" stroke-width="8" stroke-linecap="round" stroke-linejoin="round" stroke-miterlimit="10" d="
	M363.499,89.414c-16.48-24.32-59.757-50.169-113.003-50.169c0,0-12.954-0.152-27.889,4.22l-5.851-9.714l-14.097,16.89l-12.454-4.388
	l-7.077,27.894l-11.371-6.048c0,0-55.57,22.646-55.57,92.383l7.652,76.33l13.152,16.23c0,0-2.526-37.916,12.239-55.759
	l-6.645-48.371c-5.185-38,40.828-67.683,54.434-60.191c0.018,0.024,10.373,26.928,39.246,28.369l-2.388,13.637l22.332-17.5
	l6.947,10.5c0,0,27.361-34.991,31.388-45.843c0.017,0.011-1.565,4.964-1.565,4.964c51.761-15.286,74.101,44.064,70.987,66.063
	l-7.602,48.371c14.768,17.843,10.238,55.759,10.238,55.759l12.151-11.454l9.684-81.106
	C388.44,121.245,363.499,89.414,363.499,89.414z"/>
<path id="Mouth" fill="#FFFFFF" stroke="#2B2B2B" stroke-width="6" stroke-miterlimit="10" d="M251.586,395.001
	c28.227,0,40.198-20.883,40.198-20.883s-17.905-5.009-40.198,1.549c-22.293-6.558-40.198-1.549-40.198-1.549
	S223.359,395.001,251.586,395.001z"/>
<path id="Right_Eye" fill="#2B2B2B" d="M305.814,248.096c-1.652-0.029-3.309,0.067-4.922,0.289
	c-9.867,1.347-17.914,7.225-20.709,15.055l3.729,0.064c3.167-3.271,7.325-5.709,12.013-7.096c-0.539,1.233-0.842,2.594-0.842,4.025
	c0,5.567,4.514,10.08,10.08,10.08c5.567,0,10.08-4.513,10.08-10.08c0-1.42-0.297-2.771-0.827-3.996
	c5.013,1.489,9.436,4.173,12.734,7.838l3.729,0.064C327.907,254.951,317.712,248.306,305.814,248.096z"/>
<path id="Left_Eye" fill="#2B2B2B" d="M225.721,263.439c-2.796-7.83-10.842-13.708-20.709-15.055
	c-1.613-0.222-3.269-0.318-4.921-0.289c-11.898,0.21-22.093,6.855-25.067,16.244l3.73-0.064c3.299-3.665,7.721-6.348,12.733-7.838
	c-0.53,1.226-0.827,2.576-0.827,3.996c0,5.567,4.513,10.08,10.08,10.08c5.567,0,10.08-4.513,10.08-10.08
	c0-1.432-0.303-2.792-0.841-4.025c4.688,1.387,8.845,3.824,12.014,7.096L225.721,263.439z"/>
<g id="Eyebrows">
	<path fill="#3F2C21" d="M234.666,232.895l-49.845-10.677c-0.594-0.105-1.214,0.051-1.676,0.413l-17.524,13.85
		c-0.725,0.568-0.922,1.532-0.468,2.293c0.328,0.547,0.929,0.89,1.688,0.917c0.139,0,0.28-0.014,0.428-0.042l21.459-4.343
		l43.172,5.155c0.09,0.012,0.18,0.018,0.271,0.018c0.561,0,1.102-0.225,1.484-0.616c0.07-0.072,0.13-0.155,0.176-0.246l1.959-3.855
		c0.398-0.49,0.511-1.131,0.291-1.713C235.857,233.453,235.303,233.008,234.666,232.895z"/>
	<path fill="#3F2C21" d="M336.049,235.668l-16.538-14.063c-0.362-0.307-0.838-0.475-1.335-0.475c-0.11,0-0.223,0.008-0.367,0.032
		l-50.838,9.771c-0.668,0.104-1.224,0.509-1.486,1.081c-0.268,0.575-0.199,1.223,0.171,1.731l1.665,3.857
		c0.044,0.099,0.102,0.189,0.173,0.27c0.368,0.413,0.934,0.66,1.512,0.66c0.078,0,0.157-0.004,0.222-0.012l43.792-4.409
		l21.229,4.675c0.148,0.032,0.303,0.049,0.456,0.049c0.007,0,0.04,0,0.048,0c0.663-0.015,1.271-0.332,1.623-0.846
		C336.892,237.239,336.754,236.262,336.049,235.668z M334.702,237.832L334.702,237.832v0.003V237.832z"/>
</g>
<path id="Nose" fill="none" stroke="#2B2B2B" stroke-width="6" stroke-linecap="round" stroke-miterlimit="10" d="M277.926,336.916
	l-6.006,0.208c0,0-6.016,8.653-20.454,8.653c-15.34,0-20.452-8.653-20.452-8.653l-6.008-0.208"/>
<line fill="none" stroke="#C5928A" stroke-width="5" stroke-linecap="round" stroke-linejoin="round" stroke-miterlimit="10" x1="264.165" y1="312.499" x2="262.499" y2="256.832"/>
<path fill="none" stroke="#C5928A" stroke-width="5" stroke-linecap="round" stroke-linejoin="round" stroke-miterlimit="10" d="
	M286,326.496c0,0,10,7.621,16.5,17.034c6.5,9.414,11,21.069,11,21.069"/>
<path fill="none" stroke="#C5928A" stroke-width="5" stroke-linecap="round" stroke-linejoin="round" stroke-miterlimit="10" d="
	M215.021,327.394c0,0-10,7.621-16.5,17.034c-6.5,9.414-11,21.069-11,21.069"/>
<line fill="none" stroke="#C5928A" stroke-width="5" stroke-linecap="round" stroke-linejoin="round" stroke-miterlimit="10" x1="235.5" y1="412.5" x2="270.5" y2="412.5"/>
</svg>
